<?xml version="1.0" encoding="UTF-8" standalone="no"?>
<!-- Created with Inkscape (http://www.inkscape.org/) -->

<svg
   width="52.010303mm"
   height="65.768013mm"
   viewBox="0 0 52.010303 65.768013"
   version="1.1"
   id="svg1"
   xml:space="preserve"
   xmlns:inkscape="http://www.inkscape.org/namespaces/inkscape"
   xmlns:sodipodi="http://sodipodi.sourceforge.net/DTD/sodipodi-0.dtd"
   xmlns="http://www.w3.org/2000/svg"
   xmlns:svg="http://www.w3.org/2000/svg"><sodipodi:namedview
     id="namedview1"
     pagecolor="#ffffff"
     bordercolor="#000000"
     borderopacity="0.25"
     inkscape:showpageshadow="2"
     inkscape:pageopacity="0.0"
     inkscape:pagecheckerboard="0"
     inkscape:deskcolor="#d1d1d1"
     inkscape:document-units="mm" /><defs
     id="defs1" /><g
     inkscape:label="Capa 1"
     inkscape:groupmode="layer"
     id="layer1"
     transform="translate(-20.333407,-199.04066)"><g
       id="g36"
       transform="matrix(0.63227509,0,0,0.63227509,15.037579,80.473762)"
       style="stroke-width:1.58159"><path
         style="fill:#fd3452;fill-opacity:1;stroke-width:1.58159"
         d="m 71.073581,226.45196 c -2.239607,-1.76168 -1.871364,-3.33234 1.670966,-7.12722 2.582987,-2.76713 4.378241,-3.20723 6.092047,-1.49342 3.552433,3.55243 -3.810962,11.72932 -7.763013,8.62064 z"
         id="path30" /><path
         style="fill:#fd3452;fill-opacity:1;stroke-width:1.58159"
         d="m 67.576051,233.97387 c -1.3067,-1.44389 -0.284259,-3.94458 1.612794,-3.94458 0.952137,0 2.040038,1.28891 2.040038,2.41697 0,1.91188 -2.397645,2.91457 -3.652832,1.52761 z"
         id="path26" /><path
         style="fill:#fd3452;fill-opacity:1;stroke-width:1.58159"
         d="m 83.246998,247.41244 c -0.0067,-0.24662 0.407866,-1.11462 0.921895,-1.92889 1.682471,-2.6652 1.57891,-5.39719 -0.285087,-7.52016 -1.105797,-1.25943 -1.105797,-1.25943 -0.436279,-4.33196 3.441852,-15.79507 -5.416509,-31.41998 -21.164299,-37.33091 -1.707106,-0.64076 -1.707106,-0.64076 -1.458372,-3.14136 0.310657,-3.12319 0.351694,-3.14509 3.671354,-1.95861 20.036095,7.16115 30.284527,28.40429 23.282969,48.26133 -1.561867,4.42958 -4.486593,9.56027 -4.532181,7.95056 z"
         id="path20" /></g><g
       id="g37"
       transform="matrix(0.63227509,0,0,0.63227509,15.037579,80.473762)"
       style="fill:#412d78;fill-opacity:1;stroke-width:1.58159"><path
         style="fill:#412d78;fill-opacity:1;stroke-width:1.58159"
         d="m 62.185312,267.81804 c -2.255688,-0.9114 -2.887985,-3.66623 -1.223505,-5.33071 2.612308,-2.61231 6.704927,0.6706 4.942156,3.96437 -0.300834,0.56211 -2.399485,1.79648 -2.873318,1.69002 -0.05485,-0.012 -0.435185,-0.15797 -0.845333,-0.32368 z"
         id="path17" /><path
         style="fill:#412d78;fill-opacity:1;stroke-width:1.58159"
         d="m 21.050938,237.26888 c -3.83066,-2.08206 -2.228196,-8.10634 2.156291,-8.10634 3.898469,0 5.530934,4.58699 2.65572,7.46221 -1.315215,1.31521 -3.130327,1.55818 -4.812011,0.64413 z"
         id="path24" /><path
         style="fill:#412d78;fill-opacity:1;stroke-width:1.58159"
         d="m 31.545314,244.67269 c -0.597652,-0.59766 -0.43481,-1.41951 0.340178,-1.71691 1.257189,-0.48242 2.098371,0.8726 1.137933,1.83305 -0.555948,0.55595 -0.827343,0.53462 -1.478111,-0.1161 z"
         id="path23" /><path
         style="fill:#412d78;fill-opacity:1;stroke-width:1.58159"
         d="m 36.27194,245.91876 c -1.449271,-1.44927 -0.474954,-3.88411 1.554247,-3.88411 1.423688,0 2.329862,0.91654 2.329862,2.3565 0,2.03428 -2.424055,2.98765 -3.884109,1.52761 z"
         id="path21" /><path
         style="fill:#412d78;fill-opacity:1;stroke-width:1.58159"
         d="m 46.677488,252.88441 c -0.628641,-0.54073 -1.038055,-1.36465 -1.254893,-2.52535 -0.250042,-1.33835 -0.637169,-2.01386 -1.734905,-3.0273 -1.662533,-1.53484 -1.813751,-2.643 -0.547154,-4.00967 1.984294,-2.14109 5.968334,0.21379 7.445657,4.40095 1.434645,4.06621 -1.175274,7.51256 -3.908705,5.16137 z"
         id="path19" /></g><g
       id="g38"
       style="fill:#0a7c96;fill-opacity:1;stroke-width:1.58159"
       transform="matrix(0.63227509,0,0,0.63227509,15.037579,80.473762)"><path
         style="fill:#0a7c96;fill-opacity:1;stroke-width:1.58159"
         d="m 51.243407,194.93047 c -3.149891,-3.14989 -0.05258,-8.423 4.249817,-7.23507 4.783304,1.32072 3.760089,8.43561 -1.213162,8.43561 -1.617331,0 -1.979169,-0.14305 -3.036655,-1.20054 z"
         id="path35" /><path
         style="fill:#0a7c96;fill-opacity:1;stroke-width:1.58159"
         d="m 69.534,210.8912 c -1.390617,-1.39061 0.332865,-3.67208 2.0712,-2.74175 1.37216,0.73436 0.676378,3.16548 -0.905961,3.16548 -0.40784,0 -0.932186,-0.19067 -1.165239,-0.42373 z"
         id="path34" /><path
         style="fill:#0a7c96;fill-opacity:1;stroke-width:1.58159"
         d="m 13.790984,212.79761 c -2.157384,-0.31491 -3.120918,-2.60149 -2.008488,-4.76635 6.036636,-11.7476 21.032352,-20.43375 33.846608,-19.6054 3.417042,0.22089 2.836111,5.93959 -0.603645,5.94237 -11.95431,0.009 -22.610488,6.01038 -27.083281,15.25116 -1.533602,3.16841 -1.963488,3.49754 -4.151194,3.17822 z"
         id="path33" /><path
         style="fill:#0a7c96;fill-opacity:1;stroke-width:1.58159"
         d="m 63.268075,218.92268 c -2.178124,-2.17813 0.236016,-5.33847 2.990052,-3.9143 1.183375,0.61195 1.52099,1.61779 1.022748,3.04702 -0.655532,1.88046 -2.583027,2.29705 -4.0128,0.86728 z"
         id="path32" /><path
         style="fill:#0a7c96;fill-opacity:1;stroke-width:1.58159"
         d="m 55.708594,223.51641 c -0.232893,-0.28062 -0.371513,-0.87648 -0.308055,-1.32413 0.161708,-1.14071 2.185317,-1.36485 2.752595,-0.30488 0.829879,1.55066 -1.320366,2.98355 -2.44454,1.62901 z"
         id="path31" /><path
         style="fill:#0a7c96;fill-opacity:1;stroke-width:1.58159"
         d="m 62.825097,228.54631 c -0.706166,-0.70616 -0.47729,-1.68562 0.497708,-2.12985 1.429973,-0.65154 2.464866,0.88234 1.348499,1.99869 -0.663473,0.66349 -1.270748,0.70662 -1.846207,0.13119 z"
         id="path29" /><path
         style="fill:#0a7c96;fill-opacity:1;stroke-width:1.58159"
         d="m 28.569422,228.63021 c -0.959997,-1.29846 -3.459908,-2.48503 -5.235571,-2.48503 -2.363867,0 -4.196114,-2.86284 -4.599937,-7.18731 -0.668584,-7.15977 6.308805,-15.91377 15.279429,-19.16993 4.419625,-1.60424 13.460777,-1.90163 13.557815,-0.44601 0.346518,5.19794 -18.92958,15.74859 -13.462509,17.87245 2.231216,0.86678 7.643352,-5.57726 10.771733,-8.75977 3.457425,-3.51725 5.813083,-7.44576 6.346744,-8.17403 0.970273,-1.32412 0.970273,-1.32412 4.860454,-1.32412 3.890182,0 3.890182,0 3.111844,1.09305 -1.63057,2.28995 -19.443754,20.03504 -20.727994,20.64879 -5.991288,2.86326 -11.929928,-2.41628 -8.60872,-7.65326 1.026792,-1.61908 2.189775,-2.63187 5.804211,-5.05459 3.610832,-2.42031 4.007395,-3.72363 1.134676,-3.72922 -10.250059,-0.0199 -14.686566,17.45349 -5.14414,20.2605 6.034474,1.7751 6.660793,1.40569 20.056554,-11.82928 11.113635,-10.98026 12.019743,-11.66236 13.384456,-10.07579 2.663568,3.09659 1.711311,4.86471 -6.397045,11.8778 -2.132082,1.84407 -5.952706,5.35959 -8.490291,7.81226 -6.442981,6.22738 -8.055882,6.93874 -16.27674,7.17872 -4.6327,0.13523 -4.6327,0.13523 -5.364969,-0.85523 z"
         id="path28"
         sodipodi:nodetypes="sssssssssssssssssssss" /><path
         style="fill:#0a7c96;fill-opacity:1;stroke-width:1.58159"
         d="m 14.55627,232.31493 c -6.2201233,-6.24807 -7.6168396,-18.5388 -1.965689,-17.2976 1.915524,0.42072 2.520303,1.52651 2.632899,4.81407 0.121444,3.546 1.016342,5.62365 2.901265,6.73578 1.222383,0.72122 1.228455,0.73681 0.575886,1.47759 -1.325852,1.50504 -1.811642,2.6455 -1.917539,4.50165 -0.108232,1.89663 -0.108232,1.89663 -2.226822,-0.23149 z"
         id="path27" /><path
         style="fill:#0a7c96;fill-opacity:1;stroke-width:1.58159"
         d="m 75.697366,235.73931 c -1.140282,-1.25999 -0.27337,-3.23837 1.41903,-3.23837 0.88709,0 1.880691,1.05843 1.880691,2.0034 0,1.61761 -2.206189,2.44331 -3.299721,1.23497 z"
         id="path25" /><path
         style="fill:#0a7c96;fill-opacity:1;stroke-width:1.58159"
         d="m 62.642009,245.65393 c -0.08474,-0.14565 -0.425522,-1.20989 -0.757198,-2.36497 -1.953825,-6.80421 -8.059485,-13.08257 -12.655297,-13.01324 -2.169303,0.0327 -2.728774,-0.80989 -1.882507,-2.83527 0.541214,-1.29532 0.541214,-1.29532 3.648867,-1.27983 6.003486,0.0299 10.112748,3.0998 13.709301,10.2416 1.574398,3.12633 1.680415,3.16073 9.741434,3.16073 8.145724,0 9.144129,0.38917 8.589062,3.34791 -0.553239,2.94906 -0.769636,3.0079 -11.062882,3.0079 -5.047159,0 -9.246009,-0.11918 -9.33078,-0.26483 z"
         id="path22" /><path
         style="fill:#0a7c96;fill-opacity:1;stroke-width:1.58159"
         d="m 62.874435,253.59577 c 0.352042,-4.57998 -0.581865,-4.14599 8.921873,-4.14599 4.543044,0 8.260081,0.0873 8.260081,0.19408 0,0.54175 -1.268306,2.59229 -2.2464,3.63188 -1.934714,2.05633 -2.746349,2.30441 -8.346613,2.55125 -2.815973,0.12412 -5.502842,0.35414 -5.970816,0.51116 -0.850871,0.28549 -0.850871,0.28549 -0.618125,-2.74238 z"
         id="path18" /><path
         style="fill:#0a7c96;fill-opacity:1;stroke-width:1.58159"
         d="m 48.844789,271.48968 c -1.114112,-2.90332 0.05885,-9.77325 2.210313,-12.94563 3.747357,-5.52557 3.820464,-11.25748 0.207029,-16.23332 -2.127291,-2.92939 -2.022155,-2.90118 -11.559963,-3.10087 -9.646655,-0.20196 -10.670711,-0.59488 -10.422951,-3.9992 0.122112,-1.67863 18.163531,-2.56721 21.404812,-1.05424 8.470233,3.95373 11.732601,17.2048 6.648062,27.00306 -2.345824,4.52056 -2.345824,4.52056 -2.345824,7.70464 0,3.0474 -5.136894,5.24347 -6.141478,2.62556 z"
         id="path16" /></g><text
       xml:space="preserve"
       style="font-style:normal;font-variant:normal;font-weight:normal;font-stretch:normal;font-size:16.0397px;font-family:'Microsoft Yi Baiti';-inkscape-font-specification:'Microsoft Yi Baiti';letter-spacing:0px;word-spacing:-1.64042px;fill:#0a7c96;fill-opacity:1;stroke:#0a7c96;stroke-width:0.5;stroke-dasharray:none;stroke-opacity:1"
       x="19.455614"
       y="264.40204"
       id="text38"><tspan
         sodipodi:role="line"
         id="tspan38"
         style="font-style:normal;font-variant:normal;font-weight:normal;font-stretch:normal;font-family:'Microsoft Yi Baiti';-inkscape-font-specification:'Microsoft Yi Baiti';fill:#0a7c96;fill-opacity:1;stroke:#0a7c96;stroke-width:0.5;stroke-dasharray:none;stroke-opacity:1"
         x="19.455614"
         y="264.40204">EDANTIC</tspan></text></g></svg>
