<?xml version="1.0" encoding="UTF-8" standalone="no"?>
<!-- Created with Inkscape (http://www.inkscape.org/) -->

<svg
   width="40.210888mm"
   height="37.335464mm"
   viewBox="0 0 40.210888 37.335464"
   version="1.1"
   id="svg1"
   xml:space="preserve"
   xmlns:inkscape="http://www.inkscape.org/namespaces/inkscape"
   xmlns:sodipodi="http://sodipodi.sourceforge.net/DTD/sodipodi-0.dtd"
   xmlns="http://www.w3.org/2000/svg"
   xmlns:svg="http://www.w3.org/2000/svg"><sodipodi:namedview
     id="namedview1"
     pagecolor="#ffffff"
     bordercolor="#000000"
     borderopacity="0.25"
     inkscape:showpageshadow="2"
     inkscape:pageopacity="0.0"
     inkscape:pagecheckerboard="0"
     inkscape:deskcolor="#d1d1d1"
     inkscape:document-units="mm" /><defs
     id="defs1" /><g
     inkscape:label="Capa 1"
     inkscape:groupmode="layer"
     id="layer1"
     transform="translate(-17.801453,-205.19267)"><g
       id="g59"
       inkscape:export-filename="Logo.svg"
       inkscape:export-xdpi="150"
       inkscape:export-ydpi="150"
       transform="matrix(1.0919153,0,0,1.091929,-3.4842253,-20.579468)"
       style="stroke-width:0.915816"><g
         id="g36"
         transform="matrix(0.27856467,0,0,0.27909417,24.116466,154.42757)"
         style="stroke-width:3.28451"
         inkscape:export-filename="Logo.png"
         inkscape:export-xdpi="150"
         inkscape:export-ydpi="150"><path
           style="fill:#fd3452;fill-opacity:1;stroke-width:3.28451"
           d="m 71.073581,226.45196 c -2.239607,-1.76168 -1.871364,-3.33234 1.670966,-7.12722 2.582987,-2.76713 4.378241,-3.20723 6.092047,-1.49342 3.552433,3.55243 -3.810962,11.72932 -7.763013,8.62064 z"
           id="path30" /><path
           style="fill:#fd3452;fill-opacity:1;stroke-width:3.28451"
           d="m 67.576051,233.97387 c -1.3067,-1.44389 -0.284259,-3.94458 1.612794,-3.94458 0.952137,0 2.040038,1.28891 2.040038,2.41697 0,1.91188 -2.397645,2.91457 -3.652832,1.52761 z"
           id="path26" /><path
           style="fill:#fd3452;fill-opacity:1;stroke-width:3.28451"
           d="m 83.246998,247.41244 c -0.0067,-0.24662 0.407866,-1.11462 0.921895,-1.92889 1.682471,-2.6652 1.57891,-5.39719 -0.285087,-7.52016 -1.105797,-1.25943 -1.105797,-1.25943 -0.436279,-4.33196 3.441852,-15.79507 -5.416509,-31.41998 -21.164299,-37.33091 -1.707106,-0.64076 -1.707106,-0.64076 -1.458372,-3.14136 0.310657,-3.12319 0.351694,-3.14509 3.671354,-1.95861 20.036095,7.16115 30.284527,28.40429 23.282969,48.26133 -1.561867,4.42958 -4.486593,9.56027 -4.532181,7.95056 z"
           id="path20" /></g><g
         id="g37"
         transform="matrix(0.27856467,0,0,0.27909417,24.116466,154.42757)"
         style="fill:#412d78;fill-opacity:1;stroke-width:3.28451"><path
           style="fill:#412d78;fill-opacity:1;stroke-width:3.28451"
           d="m 62.185312,267.81804 c -2.255688,-0.9114 -2.887985,-3.66623 -1.223505,-5.33071 2.612308,-2.61231 6.704927,0.6706 4.942156,3.96437 -0.300834,0.56211 -2.399485,1.79648 -2.873318,1.69002 -0.05485,-0.012 -0.435185,-0.15797 -0.845333,-0.32368 z"
           id="path17" /><path
           style="fill:#412d78;fill-opacity:1;stroke-width:3.28451"
           d="m 21.050938,237.26888 c -3.83066,-2.08206 -2.228196,-8.10634 2.156291,-8.10634 3.898469,0 5.530934,4.58699 2.65572,7.46221 -1.315215,1.31521 -3.130327,1.55818 -4.812011,0.64413 z"
           id="path24" /><path
           style="fill:#412d78;fill-opacity:1;stroke-width:3.28451"
           d="m 31.545314,244.67269 c -0.597652,-0.59766 -0.43481,-1.41951 0.340178,-1.71691 1.257189,-0.48242 2.098371,0.8726 1.137933,1.83305 -0.555948,0.55595 -0.827343,0.53462 -1.478111,-0.1161 z"
           id="path23" /><path
           style="fill:#412d78;fill-opacity:1;stroke-width:3.28451"
           d="m 36.27194,245.91876 c -1.449271,-1.44927 -0.474954,-3.88411 1.554247,-3.88411 1.423688,0 2.329862,0.91654 2.329862,2.3565 0,2.03428 -2.424055,2.98765 -3.884109,1.52761 z"
           id="path21" /><path
           style="fill:#412d78;fill-opacity:1;stroke-width:3.28451"
           d="m 46.677488,252.88441 c -0.628641,-0.54073 -1.038055,-1.36465 -1.254893,-2.52535 -0.250042,-1.33835 -0.637169,-2.01386 -1.734905,-3.0273 -1.662533,-1.53484 -1.813751,-2.643 -0.547154,-4.00967 1.984294,-2.14109 5.968334,0.21379 7.445657,4.40095 1.434645,4.06621 -1.175274,7.51256 -3.908705,5.16137 z"
           id="path19" /></g><g
         id="g38"
         style="fill:#0a7c96;fill-opacity:1;stroke-width:3.28451"
         transform="matrix(0.27856467,0,0,0.27909417,24.116466,154.42757)"><path
           style="fill:#0a7c96;fill-opacity:1;stroke-width:3.28451"
           d="m 51.243407,194.93047 c -3.149891,-3.14989 -0.05258,-8.423 4.249817,-7.23507 4.783304,1.32072 3.760089,8.43561 -1.213162,8.43561 -1.617331,0 -1.979169,-0.14305 -3.036655,-1.20054 z"
           id="path35" /><path
           style="fill:#0a7c96;fill-opacity:1;stroke-width:3.28451"
           d="m 69.534,210.8912 c -1.390617,-1.39061 0.332865,-3.67208 2.0712,-2.74175 1.37216,0.73436 0.676378,3.16548 -0.905961,3.16548 -0.40784,0 -0.932186,-0.19067 -1.165239,-0.42373 z"
           id="path34" /><path
           style="fill:#0a7c96;fill-opacity:1;stroke-width:3.28451"
           d="m 13.790984,212.79761 c -2.157384,-0.31491 -3.120918,-2.60149 -2.008488,-4.76635 6.036636,-11.7476 21.032352,-20.43375 33.846608,-19.6054 3.417042,0.22089 2.836111,5.93959 -0.603645,5.94237 -11.95431,0.009 -22.610488,6.01038 -27.083281,15.25116 -1.533602,3.16841 -1.963488,3.49754 -4.151194,3.17822 z"
           id="path33" /><path
           style="fill:#0a7c96;fill-opacity:1;stroke-width:3.28451"
           d="m 63.268075,218.92268 c -2.178124,-2.17813 0.236016,-5.33847 2.990052,-3.9143 1.183375,0.61195 1.52099,1.61779 1.022748,3.04702 -0.655532,1.88046 -2.583027,2.29705 -4.0128,0.86728 z"
           id="path32" /><path
           style="fill:#0a7c96;fill-opacity:1;stroke-width:3.28451"
           d="m 55.708594,223.51641 c -0.232893,-0.28062 -0.371513,-0.87648 -0.308055,-1.32413 0.161708,-1.14071 2.185317,-1.36485 2.752595,-0.30488 0.829879,1.55066 -1.320366,2.98355 -2.44454,1.62901 z"
           id="path31" /><path
           style="fill:#0a7c96;fill-opacity:1;stroke-width:3.28451"
           d="m 62.825097,228.54631 c -0.706166,-0.70616 -0.47729,-1.68562 0.497708,-2.12985 1.429973,-0.65154 2.464866,0.88234 1.348499,1.99869 -0.663473,0.66349 -1.270748,0.70662 -1.846207,0.13119 z"
           id="path29" /><path
           style="fill:#0a7c96;fill-opacity:1;stroke-width:3.28451"
           d="m 28.569422,228.63021 c -0.959997,-1.29846 -3.459908,-2.48503 -5.235571,-2.48503 -2.363867,0 -4.196114,-2.86284 -4.599937,-7.18731 -0.668584,-7.15977 6.308805,-15.91377 15.279429,-19.16993 4.419625,-1.60424 13.460777,-1.90163 13.557815,-0.44601 0.346518,5.19794 -18.92958,15.74859 -13.462509,17.87245 2.231216,0.86678 7.643352,-5.57726 10.771733,-8.75977 3.457425,-3.51725 5.813083,-7.44576 6.346744,-8.17403 0.970273,-1.32412 0.970273,-1.32412 4.860454,-1.32412 3.890182,0 3.890182,0 3.111844,1.09305 -1.63057,2.28995 -19.443754,20.03504 -20.727994,20.64879 -5.991288,2.86326 -11.929928,-2.41628 -8.60872,-7.65326 1.026792,-1.61908 2.189775,-2.63187 5.804211,-5.05459 3.610832,-2.42031 4.007395,-3.72363 1.134676,-3.72922 -10.250059,-0.0199 -14.686566,17.45349 -5.14414,20.2605 6.034474,1.7751 6.660793,1.40569 20.056554,-11.82928 11.113635,-10.98026 12.019743,-11.66236 13.384456,-10.07579 2.663568,3.09659 1.711311,4.86471 -6.397045,11.8778 -2.132082,1.84407 -5.952706,5.35959 -8.490291,7.81226 -6.442981,6.22738 -8.055882,6.93874 -16.27674,7.17872 -4.6327,0.13523 -4.6327,0.13523 -5.364969,-0.85523 z"
           id="path28"
           sodipodi:nodetypes="sssssssssssssssssssss" /><path
           style="fill:#0a7c96;fill-opacity:1;stroke-width:3.28451"
           d="m 14.55627,232.31493 c -6.2201233,-6.24807 -7.6168396,-18.5388 -1.965689,-17.2976 1.915524,0.42072 2.520303,1.52651 2.632899,4.81407 0.121444,3.546 1.016342,5.62365 2.901265,6.73578 1.222383,0.72122 1.228455,0.73681 0.575886,1.47759 -1.325852,1.50504 -1.811642,2.6455 -1.917539,4.50165 -0.108232,1.89663 -0.108232,1.89663 -2.226822,-0.23149 z"
           id="path27" /><path
           style="fill:#0a7c96;fill-opacity:1;stroke-width:3.28451"
           d="m 75.697366,235.73931 c -1.140282,-1.25999 -0.27337,-3.23837 1.41903,-3.23837 0.88709,0 1.880691,1.05843 1.880691,2.0034 0,1.61761 -2.206189,2.44331 -3.299721,1.23497 z"
           id="path25" /><path
           style="fill:#0a7c96;fill-opacity:1;stroke-width:3.28451"
           d="m 62.642009,245.65393 c -0.08474,-0.14565 -0.425522,-1.20989 -0.757198,-2.36497 -1.953825,-6.80421 -8.059485,-13.08257 -12.655297,-13.01324 -2.169303,0.0327 -2.728774,-0.80989 -1.882507,-2.83527 0.541214,-1.29532 0.541214,-1.29532 3.648867,-1.27983 6.003486,0.0299 10.112748,3.0998 13.709301,10.2416 1.574398,3.12633 1.680415,3.16073 9.741434,3.16073 8.145724,0 9.144129,0.38917 8.589062,3.34791 -0.553239,2.94906 -0.769636,3.0079 -11.062882,3.0079 -5.047159,0 -9.246009,-0.11918 -9.33078,-0.26483 z"
           id="path22" /><path
           style="fill:#0a7c96;fill-opacity:1;stroke-width:3.28451"
           d="m 62.874435,253.59577 c 0.352042,-4.57998 -0.581865,-4.14599 8.921873,-4.14599 4.543044,0 8.260081,0.0873 8.260081,0.19408 0,0.54175 -1.268306,2.59229 -2.2464,3.63188 -1.934714,2.05633 -2.746349,2.30441 -8.346613,2.55125 -2.815973,0.12412 -5.502842,0.35414 -5.970816,0.51116 -0.850871,0.28549 -0.850871,0.28549 -0.618125,-2.74238 z"
           id="path18" /><path
           style="fill:#0a7c96;fill-opacity:1;stroke-width:3.28451"
           d="m 48.844789,271.48968 c -1.114112,-2.90332 0.05885,-9.77325 2.210313,-12.94563 3.747357,-5.52557 3.820464,-11.25748 0.207029,-16.23332 -2.127291,-2.92939 -2.022155,-2.90118 -11.559963,-3.10087 -9.646655,-0.20196 -10.670711,-0.59488 -10.422951,-3.9992 0.122112,-1.67863 18.163531,-2.56721 21.404812,-1.05424 8.470233,3.95373 11.732601,17.2048 6.648062,27.00306 -2.345824,4.52056 -2.345824,4.52056 -2.345824,7.70464 0,3.0474 -5.136894,5.24347 -6.141478,2.62556 z"
           id="path16" /></g></g><g
       id="text55"
       style="font-size:4.58744px;font-family:'Segoe UI Historic';-inkscape-font-specification:'Segoe UI Historic';text-align:center;letter-spacing:0px;word-spacing:-0.302688px;baseline-shift:baseline;text-anchor:middle;fill:#0a7c96;stroke:#0a7c96;stroke-width:0.1"
       transform="scale(1.0039402,0.99607527)"
       aria-label="App Análisis&#10;Cambio de Régimen"><g
         id="g103"
         transform="matrix(1.0919153,0,0,1.091929,-5.252014,-20.660555)"
         style="stroke-width:0.0915816"><path
           id="path66"
           d="m 39.442869,235.60824 h -0.382521 l -0.312598,-0.8262 h -1.250391 l -0.294088,0.8262 h -0.384578 l 1.13111,-2.9472 h 0.357843 z m -0.80823,-1.13654 -0.462727,-1.25575 q -0.02262,-0.0617 -0.04525,-0.19731 h -0.0083 q -0.02057,0.12538 -0.0473,0.19731 l -0.458614,1.25575 z m 2.945001,1.13654 h -0.337276 v -1.20025 q 0,-0.67001 -0.489463,-0.67001 -0.252957,0 -0.419539,0.19114 -0.164526,0.18908 -0.164526,0.47887 v 1.20025 h -0.337277 v -2.10456 h 0.337277 v 0.3494 h 0.0083 q 0.238561,-0.39872 0.691005,-0.39872 0.345503,0 0.528538,0.22402 0.183033,0.22197 0.183033,0.64329 z m 2.142941,0 h -0.337277 v -0.32883 h -0.0083 q -0.220052,0.37816 -0.647817,0.37816 -0.314655,0 -0.493576,-0.16647 -0.176865,-0.16648 -0.176865,-0.44188 0,-0.58985 0.695119,-0.68645 l 0.631365,-0.0884 q 0,-0.53642 -0.433934,-0.53642 -0.380465,0 -0.686893,0.25895 v -0.34527 q 0.310541,-0.1973 0.715684,-0.1973 0.74242,0 0.74242,0.7851 z m -0.337277,-1.06461 -0.507971,0.0699 q -0.234449,0.0328 -0.353729,0.11715 -0.119281,0.0822 -0.119281,0.29391 0,0.15413 0.108998,0.25279 0.111054,0.0966 0.294088,0.0966 0.250901,0 0.41337,-0.1747 0.164525,-0.17675 0.164525,-0.44599 z m 0.04525,-2.11278 -0.538819,0.67412 h -0.261184 l 0.458614,-0.67412 z m 1.264788,3.17739 H 44.35806 v -3.11574 h 0.337277 z m 0.855531,-2.63892 q -0.09049,0 -0.154243,-0.0617 -0.06375,-0.0617 -0.06375,-0.1562 0,-0.0945 0.06375,-0.1562 0.06376,-0.0637 0.154243,-0.0637 0.09255,0 0.156299,0.0637 0.06581,0.0617 0.06581,0.1562 0,0.0905 -0.06581,0.15415 -0.06376,0.0637 -0.156299,0.0637 z m 0.164525,2.63892 h -0.337277 v -2.10456 h 0.337277 z m 0.555273,-0.0761 v -0.36173 q 0.275579,0.20347 0.606686,0.20347 0.444219,0 0.444219,-0.29596 0,-0.0842 -0.03908,-0.1418 -0.03702,-0.0596 -0.102829,-0.10482 -0.06376,-0.0452 -0.152186,-0.0802 -0.08638,-0.037 -0.187147,-0.0761 -0.139846,-0.0555 -0.246787,-0.11098 -0.104885,-0.0575 -0.176865,-0.12742 -0.06992,-0.0719 -0.106941,-0.16237 -0.03496,-0.0905 -0.03496,-0.21169 0,-0.14797 0.06787,-0.26101 0.06787,-0.11509 0.180978,-0.19114 0.113112,-0.0781 0.257071,-0.11715 0.146016,-0.0391 0.300258,-0.0391 0.273523,0 0.489463,0.0945 v 0.34117 q -0.232392,-0.15209 -0.534707,-0.15209 -0.0946,0 -0.170695,0.0226 -0.07609,0.0206 -0.13162,0.0596 -0.05347,0.0391 -0.08432,0.0945 -0.02879,0.0534 -0.02879,0.11919 0,0.0822 0.02879,0.13771 0.03085,0.0555 0.08843,0.0986 0.05758,0.0431 0.139846,0.0781 0.08226,0.035 0.187148,0.0761 0.139846,0.0534 0.250901,0.11098 0.111054,0.0555 0.189203,0.12743 0.07815,0.0699 0.119281,0.16236 0.04319,0.0925 0.04319,0.21991 0,0.1562 -0.06992,0.27129 -0.06787,0.1151 -0.183035,0.19114 -0.115168,0.0761 -0.265297,0.11303 -0.150129,0.037 -0.314654,0.037 -0.324938,0 -0.563499,-0.12536 z m 2.087413,-2.56289 q -0.09049,0 -0.154242,-0.0617 -0.06376,-0.0617 -0.06376,-0.1562 0,-0.0945 0.06376,-0.1562 0.06375,-0.0637 0.154242,-0.0637 0.09255,0 0.156299,0.0637 0.06581,0.0617 0.06581,0.1562 0,0.0905 -0.06581,0.15415 -0.06376,0.0637 -0.156299,0.0637 z m 0.164524,2.63892 h -0.337276 v -2.10456 h 0.337276 z m 0.555273,-0.0761 v -0.36173 q 0.27558,0.20347 0.606688,0.20347 0.444217,0 0.444217,-0.29596 0,-0.0842 -0.03907,-0.1418 -0.03702,-0.0596 -0.102829,-0.10482 -0.06375,-0.0452 -0.152185,-0.0802 -0.08638,-0.037 -0.187147,-0.0761 -0.139847,-0.0555 -0.246789,-0.11099 -0.104884,-0.0575 -0.176864,-0.12742 -0.06992,-0.0719 -0.106941,-0.16236 -0.03496,-0.0905 -0.03496,-0.2117 0,-0.14797 0.06787,-0.26101 0.06787,-0.11509 0.180978,-0.19114 0.11311,-0.0781 0.25707,-0.11715 0.146016,-0.0391 0.300258,-0.0391 0.273524,0 0.489463,0.0945 v 0.34117 q -0.232392,-0.15209 -0.534707,-0.15209 -0.0946,0 -0.170695,0.0226 -0.07609,0.0205 -0.13162,0.0596 -0.05347,0.0391 -0.08432,0.0945 -0.02879,0.0534 -0.02879,0.11919 0,0.0822 0.02879,0.13771 0.03085,0.0555 0.08843,0.0986 0.05759,0.0431 0.139847,0.0781 0.08226,0.035 0.187147,0.0761 0.139847,0.0534 0.250901,0.11097 0.111055,0.0555 0.189205,0.12743 0.07815,0.0699 0.119281,0.16236 0.04319,0.0925 0.04319,0.21991 0,0.1562 -0.06992,0.27129 -0.06787,0.1151 -0.183034,0.19115 -0.115168,0.0761 -0.265297,0.11303 -0.150129,0.037 -0.314654,0.037 -0.324938,0 -0.5635,-0.12536 z"
           style="stroke-width:0.0915816" /><path
           id="path59"
           d="m 30.898186,235.60824 h -0.38252 l -0.312598,-0.8262 h -1.250392 l -0.294088,0.8262 H 28.27401 l 1.131111,-2.9472 h 0.357842 z m -0.808229,-1.13654 -0.462727,-1.25575 q -0.02262,-0.0617 -0.04525,-0.19731 h -0.0083 q -0.02057,0.12538 -0.0473,0.19731 l -0.458614,1.25575 z m 1.542423,0.83237 h -0.0083 v 1.27219 h -0.33724 v -3.07258 h 0.337277 v 0.36995 h 0.0083 q 0.248845,-0.41927 0.728025,-0.41927 0.407199,0 0.635478,0.28362 0.228278,0.28156 0.228278,0.75633 0,0.5282 -0.25707,0.84675 -0.257071,0.31651 -0.703346,0.31651 -0.409256,0 -0.631365,-0.3535 z m -0.0083,-0.84881 v 0.2939 q 0,0.26101 0.168637,0.44392 0.170696,0.18087 0.431879,0.18087 0.306428,0 0.47918,-0.2343 0.174808,-0.23429 0.174808,-0.6515 0,-0.35146 -0.162468,-0.55081 -0.162469,-0.19936 -0.440106,-0.19936 -0.294088,0 -0.47301,0.20553 -0.17892,0.20346 -0.17892,0.51175 z m 2.484329,0.84881 h -0.0083 v 1.27219 h -0.337277 v -3.07258 h 0.337277 v 0.36995 h 0.0083 q 0.248845,-0.41927 0.728025,-0.41927 0.4072,0 0.635479,0.28362 0.228278,0.28156 0.228278,0.75633 0,0.5282 -0.257071,0.84675 -0.25707,0.31651 -0.703345,0.31651 -0.409256,0 -0.631366,-0.3535 z m -0.0083,-0.84881 v 0.2939 q 0,0.26101 0.168638,0.44392 0.170695,0.18087 0.431879,0.18087 0.306428,0 0.479179,-0.2343 0.174809,-0.23429 0.174809,-0.6515 0,-0.35146 -0.162469,-0.55081 -0.162469,-0.19936 -0.440105,-0.19936 -0.294089,0 -0.47301,0.20553 -0.178921,0.20346 -0.178921,0.51175 z"
           style="fill:#412d78;fill-opacity:1;stroke:#412d78;stroke-width:0.0915816;stroke-opacity:1" /><path
           id="path91"
           d="M 44.179043,240.8697 H 43.76773 l -0.493576,-0.8262 q -0.06787,-0.1151 -0.13162,-0.19525 -0.06375,-0.0822 -0.13162,-0.13359 -0.06581,-0.0514 -0.14396,-0.0739 -0.07609,-0.0247 -0.172751,-0.0247 h -0.283806 v 1.25368 h -0.345503 v -2.9472 h 0.88021 q 0.193317,0 0.355786,0.0494 0.164525,0.0473 0.283805,0.14593 0.121338,0.0986 0.189205,0.24662 0.06787,0.14593 0.06787,0.34323 0,0.15414 -0.0473,0.28362 -0.04525,0.12743 -0.13162,0.22814 -0.08432,0.1007 -0.205657,0.17263 -0.119281,0.0699 -0.26941,0.10893 v 0.008 q 0.07404,0.0328 0.127508,0.0761 0.05553,0.0411 0.104885,0.0987 0.04936,0.0575 0.09666,0.13153 0.04936,0.0719 0.108998,0.16853 z m -1.768646,-2.63481 v 1.06872 h 0.468897 q 0.129563,0 0.238561,-0.0391 0.111055,-0.0391 0.191261,-0.11097 0.08021,-0.074 0.12545,-0.17881 0.04525,-0.10688 0.04525,-0.23841 0,-0.23635 -0.154242,-0.36789 -0.152186,-0.13359 -0.442161,-0.13359 z m 3.685363,1.66679 h -1.486897 q 0.0083,0.35145 0.189204,0.54258 0.180978,0.19114 0.497689,0.19114 0.355786,0 0.653988,-0.2343 v 0.31652 q -0.277637,0.2014 -0.734194,0.2014 -0.446275,0 -0.701289,-0.28567 -0.255014,-0.28774 -0.255014,-0.80771 0,-0.4912 0.277637,-0.79948 0.279693,-0.31034 0.693062,-0.31034 0.41337,0 0.639592,0.26717 0.226222,0.26718 0.226222,0.74195 z m -0.345503,-0.28567 q -0.002,-0.29185 -0.141904,-0.45421 -0.137789,-0.16236 -0.384577,-0.16236 -0.238562,0 -0.405143,0.17058 -0.166581,0.17058 -0.205657,0.44599 z m -0.05347,-1.92371 -0.53882,0.67412 h -0.261183 l 0.458613,-0.67412 z m 2.706439,3.00887 q 0,1.15916 -1.110544,1.15916 -0.390748,0 -0.682779,-0.14798 v -0.33707 q 0.355785,0.19731 0.678666,0.19731 0.777381,0 0.777381,-0.8262 v -0.23019 h -0.0083 q -0.240618,0.40282 -0.723911,0.40282 -0.392804,0 -0.633422,-0.2795 -0.238562,-0.28158 -0.238562,-0.75428 0,-0.53642 0.257071,-0.85292 0.259128,-0.3165 0.707459,-0.3165 0.425709,0 0.631365,0.34116 h 0.0083 v -0.29184 h 0.337276 z m -0.337276,-0.78305 v -0.31033 q 0,-0.25075 -0.170695,-0.42954 -0.168639,-0.17881 -0.421596,-0.17881 -0.312598,0 -0.489463,0.22813 -0.176864,0.22607 -0.176864,0.63506 0,0.35145 0.168639,0.56314 0.170694,0.20963 0.450387,0.20963 0.283807,0 0.460671,-0.20141 0.178921,-0.20141 0.178921,-0.51587 z m 1.192807,-1.68735 q -0.09049,0 -0.154242,-0.0617 -0.06376,-0.0617 -0.06376,-0.1562 0,-0.0945 0.06376,-0.1562 0.06376,-0.0637 0.154242,-0.0637 0.09255,0 0.1563,0.0637 0.06581,0.0617 0.06581,0.1562 0,0.0905 -0.06581,0.15414 -0.06375,0.0637 -0.1563,0.0637 z m 0.164526,2.63893 h -0.337276 v -2.10456 h 0.337313 z m 3.673025,0 h -0.337277 v -1.20848 q 0,-0.34939 -0.108998,-0.50558 -0.10694,-0.1562 -0.361955,-0.1562 -0.21594,0 -0.368125,0.1973 -0.150129,0.1973 -0.150129,0.47271 v 1.20025 h -0.337276 v -1.24958 q 0,-0.62068 -0.47918,-0.62068 -0.222109,0 -0.366069,0.18703 -0.14396,0.18496 -0.14396,0.48298 v 1.20025 h -0.337276 v -2.10456 h 0.337276 v 0.33295 h 0.0083 q 0.224166,-0.38227 0.653988,-0.38227 0.21594,0 0.376352,0.12125 0.160412,0.11921 0.220051,0.31446 0.234449,-0.43571 0.699233,-0.43571 0.695119,0 0.695119,0.85703 z m 2.330089,-0.96802 h -1.486896 q 0.0083,0.35145 0.189203,0.54258 0.180978,0.19114 0.497689,0.19114 0.355786,0 0.653987,-0.2343 v 0.31652 q -0.277635,0.2014 -0.734193,0.2014 -0.446274,0 -0.701288,-0.28567 -0.255014,-0.28774 -0.255014,-0.80771 0,-0.4912 0.277636,-0.79948 0.279693,-0.31034 0.693062,-0.31034 0.413369,0 0.639592,0.26717 0.226222,0.26718 0.226222,0.74195 z m -0.345503,-0.28567 q -0.002,-0.29185 -0.141903,-0.45421 -0.137789,-0.16236 -0.384578,-0.16236 -0.238561,0 -0.405143,0.17058 -0.166582,0.17058 -0.205656,0.44599 z m 2.603611,1.25369 h -0.337277 v -1.20025 q 0,-0.67001 -0.489461,-0.67001 -0.252959,0 -0.41954,0.19114 -0.164525,0.18907 -0.164525,0.47887 v 1.20025 h -0.337277 v -2.10456 H 56.2737 v 0.34939 h 0.0083 q 0.238561,-0.39871 0.691005,-0.39871 0.345504,0 0.528537,0.22401 0.183035,0.22197 0.183035,0.64329 z"
           style="stroke-width:0.0915816" /><path
           id="path87"
           d="m 38.258462,240.86968 h -0.337277 v -0.35761 h -0.0083 q -0.234448,0.40693 -0.723911,0.40693 -0.396916,0 -0.635478,-0.28156 -0.236505,-0.28363 -0.236505,-0.77072 0,-0.52203 0.26324,-0.83647 0.263241,-0.31445 0.701288,-0.31445 0.433936,0 0.631366,0.34117 h 0.0083 v -1.30303 h 0.337277 z m -0.337277,-0.95157 v -0.31034 q 0,-0.25485 -0.168639,-0.4316 -0.168637,-0.17675 -0.427765,-0.17675 -0.308485,0 -0.485349,0.22608 -0.176865,0.22607 -0.176865,0.62478 0,0.36379 0.168639,0.57547 0.170695,0.20964 0.456557,0.20964 0.28175,0 0.456558,-0.20348 0.176864,-0.20346 0.176864,-0.5138 z m 2.712609,-0.0164 h -1.486859 q 0.0083,0.35145 0.189204,0.54258 0.180977,0.19114 0.497688,0.19114 0.355786,0 0.653988,-0.2343 v 0.31652 q -0.277636,0.2014 -0.734193,0.2014 -0.446275,0 -0.701289,-0.28567 -0.255014,-0.28774 -0.255014,-0.80771 0,-0.4912 0.277635,-0.79948 0.279694,-0.31034 0.693063,-0.31034 0.413369,0 0.639592,0.26717 0.226222,0.26718 0.226222,0.74195 z m -0.345503,-0.28567 q -0.002,-0.29185 -0.141903,-0.45421 -0.137789,-0.16236 -0.384578,-0.16236 -0.238561,0 -0.405143,0.17058 -0.166581,0.17058 -0.205656,0.44599 z"
           style="fill:#fd3452;fill-opacity:1;stroke:#fd3452;stroke-width:0.0915816;stroke-opacity:1" /><path
           id="path60"
           d="m 23.295201,240.74633 q -0.326993,0.17264 -0.814399,0.17264 -0.629309,0 -1.007717,-0.40488 -0.378408,-0.40488 -0.378408,-1.06256 0,-0.707 0.425709,-1.14271 0.425709,-0.43571 1.079697,-0.43571 0.419539,0 0.695118,0.12126 v 0.36789 q -0.316711,-0.17675 -0.699232,-0.17675 -0.507972,0 -0.824683,0.33911 -0.314654,0.33911 -0.314654,0.90636 0,0.53847 0.294089,0.85909 0.296145,0.31856 0.775325,0.31856 0.444218,0 0.769155,-0.1973 z m 2.062735,0.12331 h -0.337277 v -0.32883 h -0.0083 q -0.220052,0.37816 -0.647818,0.37816 -0.314654,0 -0.493575,-0.16647 -0.176865,-0.16648 -0.176865,-0.44188 0,-0.58985 0.695119,-0.68645 l 0.631366,-0.0883 q 0,-0.53642 -0.433936,-0.53642 -0.380464,0 -0.686892,0.25896 v -0.34528 q 0.310541,-0.1973 0.715684,-0.1973 0.74242,0 0.74242,0.7851 z m -0.337277,-1.06461 -0.507972,0.0699 q -0.234448,0.0328 -0.353729,0.11715 -0.119281,0.0822 -0.119281,0.2939 0,0.15414 0.108998,0.25279 0.111055,0.0966 0.29409,0.0966 0.2509,0 0.413369,-0.1747 0.164525,-0.17675 0.164525,-0.44599 z m 3.963,1.06461 h -0.337276 v -1.20847 q 0,-0.3494 -0.108998,-0.50559 -0.106941,-0.1562 -0.361955,-0.1562 -0.21594,0 -0.368125,0.19731 -0.150129,0.19729 -0.150129,0.4727 v 1.20025 h -0.337277 v -1.24958 q 0,-0.62068 -0.47918,-0.62068 -0.222109,0 -0.366069,0.18703 -0.143959,0.18497 -0.143959,0.48298 v 1.20025 h -0.337277 v -2.10456 h 0.337277 v 0.33295 h 0.0083 q 0.224165,-0.38227 0.653987,-0.38227 0.21594,0 0.376352,0.12126 0.160412,0.1192 0.220052,0.31445 0.234448,-0.43571 0.699233,-0.43571 0.695118,0 0.695118,0.85703 z m 0.983039,-0.30417 h -0.0083 v 0.30417 h -0.337277 v -3.11573 h 0.337277 v 1.38112 h 0.0083 q 0.248844,-0.41927 0.728024,-0.41927 0.405143,0 0.633422,0.28362 0.230334,0.28156 0.230334,0.75633 0,0.5282 -0.25707,0.84676 -0.257071,0.3165 -0.703345,0.3165 -0.417482,0 -0.631365,-0.3535 z m -0.0083,-0.84881 v 0.2939 q 0,0.26102 0.168638,0.44393 0.170694,0.18086 0.431878,0.18086 0.306429,0 0.47918,-0.2343 0.174808,-0.23429 0.174808,-0.6515 0,-0.35145 -0.162469,-0.55081 -0.162468,-0.19936 -0.440105,-0.19936 -0.294088,0 -0.47301,0.20553 -0.17892,0.20346 -0.17892,0.51175 z m 2.311578,-1.48594 q -0.09049,0 -0.154242,-0.0617 -0.06375,-0.0617 -0.06375,-0.1562 0,-0.0945 0.06375,-0.1562 0.06376,-0.0637 0.154242,-0.0637 0.09255,0 0.156299,0.0637 0.06581,0.0617 0.06581,0.1562 0,0.0905 -0.06581,0.15415 -0.06375,0.0637 -0.156299,0.0637 z m 0.164526,2.63892 h -0.337277 v -2.10456 h 0.337277 z m 1.562989,0.0494 q -0.46684,0 -0.746533,-0.29389 -0.277636,-0.29596 -0.277636,-0.78305 0,-0.53025 0.289975,-0.82825 0.289976,-0.29801 0.783551,-0.29801 0.470954,0 0.734194,0.28978 0.265297,0.28979 0.265297,0.8036 0,0.50353 -0.285862,0.80771 -0.283807,0.30211 -0.762986,0.30211 z m 0.02468,-1.91958 q -0.324937,0 -0.514141,0.22197 -0.189205,0.2199 -0.189205,0.60834 0,0.37406 0.191262,0.58985 0.19126,0.21581 0.512084,0.21581 0.326994,0 0.501801,-0.2117 0.176865,-0.21168 0.176865,-0.60218 0,-0.3946 -0.176865,-0.60834 -0.174807,-0.21375 -0.501801,-0.21375 z"
           style="stroke-width:0.0915816" /></g></g></g></svg>
